REM DIRINDEX 1\2\3,1\2\4,1\2\5,1\2\6
REM DIRNAME folder01,folder02,folder03,folder04,folder05,folder06
TITLE ""
FILE "120 120.mp3" MP3
  TRACK 01 AUDIO
    TITLE "0:"
    INDEX 01 00:00:00
  TRACK 02 AUDIO
    TITLE "3:cjc157_4469"
    INDEX 01 00:00:11
  TRACK 03 AUDIO
    TITLE "0:"
    INDEX 01 00:01:52
  TRACK 04 AUDIO
    TITLE "4:cjc157_4470"
    INDEX 01 00:02:24
  TRACK 05 AUDIO
    TITLE "0:"
    INDEX 01 00:03:35
  TRACK 06 AUDIO
    TITLE "5:cjc157_4471"
    INDEX 01 00:04:11
  TRACK 07 AUDIO
    TITLE "0:"
    INDEX 01 00:06:41
  TRACK 08 AUDIO
    TITLE "5:cjc157_4472"
    INDEX 01 00:07:19
  TRACK 09 AUDIO
    TITLE "0:"
    INDEX 01 00:09:28
  TRACK 10 AUDIO
    TITLE "3:cjc157_4473"
    INDEX 01 00:09:73
  TRACK 11 AUDIO
    TITLE "0:"
    INDEX 01 00:11:21
  TRACK 12 AUDIO
    TITLE "4:cjc157_4474"
    INDEX 01 00:11:62
  TRACK 13 AUDIO
    TITLE "0:"
    INDEX 01 00:13:06
  TRACK 14 AUDIO
    TITLE "5:cjc157_4475"
    INDEX 01 00:13:55
  TRACK 15 AUDIO
    TITLE "0:"
    INDEX 01 00:15:58
  TRACK 16 AUDIO
    TITLE "3:cjc157_4476"
    INDEX 01 00:16:28
  TRACK 17 AUDIO
    TITLE "0:"
    INDEX 01 00:17:45
  TRACK 18 AUDIO
    TITLE "4:cjc157_4477"
    INDEX 01 00:18:13
  TRACK 19 AUDIO
    TITLE "0:"
    INDEX 01 00:19:30
  TRACK 20 AUDIO
    TITLE "5:cjc157_4478"
    INDEX 01 00:20:02
  TRACK 21 AUDIO
    TITLE "0:"
    INDEX 01 00:22:48
  TRACK 22 AUDIO
    TITLE "5:cjc157_4479"
    INDEX 01 00:23:18
  TRACK 23 AUDIO
    TITLE "0:"
    INDEX 01 00:25:01
  TRACK 24 AUDIO
    TITLE "3:cjc157_4480"
    INDEX 01 00:25:48
  TRACK 25 AUDIO
    TITLE "0:"
    INDEX 01 00:26:73
  TRACK 26 AUDIO
    TITLE "4:cjc157_4481"
    INDEX 01 00:27:38
  TRACK 27 AUDIO
    TITLE "0:"
    INDEX 01 00:28:39
  TRACK 28 AUDIO
    TITLE "5:cjc157_4482"
    INDEX 01 00:29:13
  TRACK 29 AUDIO
    TITLE "0:"
    INDEX 01 00:31:00
  TRACK 30 AUDIO
    TITLE "5:cjc157_4483"
    INDEX 01 00:31:41
  TRACK 31 AUDIO
    TITLE "0:"
    INDEX 01 00:33:05
  TRACK 32 AUDIO
    TITLE "3:cjc157_4484"
    INDEX 01 00:33:50
  TRACK 33 AUDIO
    TITLE "0:"
    INDEX 01 00:35:12
  TRACK 34 AUDIO
    TITLE "4:cjc157_4485"
    INDEX 01 00:35:55
  TRACK 35 AUDIO
    TITLE "0:"
    INDEX 01 00:37:08
  TRACK 36 AUDIO
    TITLE "5:cjc157_4486"
    INDEX 01 00:37:56
  TRACK 37 AUDIO
    TITLE "0:"
    INDEX 01 00:39:45
  TRACK 38 AUDIO
    TITLE "5:cjc157_4487"
    INDEX 01 00:40:15
  TRACK 39 AUDIO
    TITLE "0:"
    INDEX 01 00:42:25
  TRACK 40 AUDIO
    TITLE "3:cjc157_4488"
    INDEX 01 00:42:68
  TRACK 41 AUDIO
    TITLE "0:"
    INDEX 01 00:43:68
  TRACK 42 AUDIO
    TITLE "4:cjc157_4489"
    INDEX 01 00:44:44
  TRACK 43 AUDIO
    TITLE "0:"
    INDEX 01 00:45:55
  TRACK 44 AUDIO
    TITLE "5:cjc157_4490"
    INDEX 01 00:46:23
  TRACK 45 AUDIO
    TITLE "0:"
    INDEX 01 00:47:68
  TRACK 46 AUDIO
    TITLE "5:cjc157_4491"
    INDEX 01 00:48:38
  TRACK 47 AUDIO
    TITLE "0:"
    INDEX 01 00:50:01
  TRACK 48 AUDIO
    TITLE "3:cjc157_4492"
    INDEX 01 00:50:42
  TRACK 49 AUDIO
    TITLE "0:"
    INDEX 01 00:51:48
  TRACK 50 AUDIO
    TITLE "4:cjc157_4493"
    INDEX 01 00:52:18
  TRACK 51 AUDIO
    TITLE "0:"
    INDEX 01 00:53:13
  TRACK 52 AUDIO
    TITLE "5:cjc157_4494"
    INDEX 01 00:53:64
  TRACK 53 AUDIO
    TITLE "0:"
    INDEX 01 00:55:28
  TRACK 54 AUDIO
    TITLE "5:cjc157_4495"
    INDEX 01 00:55:73
  TRACK 55 AUDIO
    TITLE "0:"
    INDEX 01 00:57:56
  TRACK 56 AUDIO
    TITLE "5:cjc157_4496"
    INDEX 01 00:58:28
  TRACK 57 AUDIO
    TITLE "0:"
    INDEX 01 01:00:04
  TRACK 58 AUDIO
    TITLE "3:cjc157_4497"
    INDEX 01 01:00:49
  TRACK 59 AUDIO
    TITLE "0:"
    INDEX 01 01:01:60
  TRACK 60 AUDIO
    TITLE "4:cjc157_4498"
    INDEX 01 01:02:28
  TRACK 61 AUDIO
    TITLE "0:"
    INDEX 01 01:03:29
  TRACK 62 AUDIO
    TITLE "5:cjc157_4499"
    INDEX 01 01:04:03
  TRACK 63 AUDIO
    TITLE "0:"
    INDEX 01 01:07:27
  TRACK 64 AUDIO
    TITLE "5:cjc157_4500"
    INDEX 01 01:07:72
  TRACK 65 AUDIO
    TITLE "0:"
    INDEX 01 01:10:08
  TRACK 66 AUDIO
    TITLE "5:cjc157_4501"
    INDEX 01 01:10:61
  TRACK 67 AUDIO
    TITLE "0:"
    INDEX 01 01:13:57
  TRACK 68 AUDIO
    TITLE "3:cjc157_4502"
    INDEX 01 01:14:29
  TRACK 69 AUDIO
    TITLE "0:"
    INDEX 01 01:15:60
  TRACK 70 AUDIO
    TITLE "4:cjc157_4503"
    INDEX 01 01:16:34
  TRACK 71 AUDIO
    TITLE "0:"
    INDEX 01 01:17:43
  TRACK 72 AUDIO
    TITLE "5:cjc157_4504"
    INDEX 01 01:18:13
  TRACK 73 AUDIO
    TITLE "0:"
    INDEX 01 01:20:48
  TRACK 74 AUDIO
    TITLE "3:cjc157_4505"
    INDEX 01 01:21:27
  TRACK 75 AUDIO
    TITLE "0:"
    INDEX 01 01:22:46
  TRACK 76 AUDIO
    TITLE "4:cjc157_4506"
    INDEX 01 01:23:18
  TRACK 77 AUDIO
    TITLE "0:"
    INDEX 01 01:24:43
  TRACK 78 AUDIO
    TITLE "5:cjc157_4507"
    INDEX 01 01:25:09
  TRACK 79 AUDIO
    TITLE "0:"
    INDEX 01 01:27:08
  TRACK 80 AUDIO
    TITLE "5:cjc157_4508"
    INDEX 01 01:27:53
  TRACK 81 AUDIO
    TITLE "0:"
    INDEX 01 01:30:11
